# xmcd
#
# Track frame offsets:
#	150
#	39593
#	80681
#	103686
#	131858
#	155240
#	176527
#	206718
#	234278
#	265448
#	293129
#
# Disc length: 4407
#
# Revision: 1
# Processed by: cddbd v1.5.1PL0 Copyright (c) Steve Scherf et al.
# Submitted via: CDex 1.51
# Normalized: r0:DSETVAR1
#
DISCID=a311350b
DTITLE=Various Artist - HI-NRG 12inch COLLECTION Vol.2
DYEAR=1900
DGENRE=Disco
TTITLE0=DAISY CHAIN - NO TIME TO STOP BELIEVING
TTITLE1=ERI and LIME - UNEXPECTED LOVER
TTITLE2=JESSICA - LIKE A BURNING STAR
TTITLE3=CHAYA - RUSSIAN AFFAIR
TTITLE4=WAX - AMERICAN ENGLISH
TTITLE5=HIDEMI and BANBOO BUBBLE - EVERYNIGHT
TTITLE6=TAPPS - MY FORBBIDEN LOVER (REMIX)
TTITLE7=KELLY MARIE - I'M ON FIRE
TTITLE8=ROFO - YOU'VE GOT TO MOVE IT ON
TTITLE9=ROCKY M - FLY WITH ME TO WANDERLAND
TTITLE10=FRANCINE KIRSCH - TIGER BAY
EXTD=
EXTT0=
EXTT1=
EXTT2=
EXTT3=
EXTT4=
EXTT5=
EXTT6=
EXTT7=
EXTT8=
EXTT9=
EXTT10=
PLAYORDER=
